<?xml version="1.0" encoding="UTF-8"?>
<!-- Generator: Adobe Illustrator 26.1.0, SVG Export Plug-In . SVG Version: 6.00 Build 0)  -->
<svg version="1.1" id="Layer_1" xmlns="http://www.w3.org/2000/svg" xmlns:xlink="http://www.w3.org/1999/xlink" x="0px" y="0px" viewBox="0 0 265.2 95.6" style="enable-background:new 0 0 265.2 95.6;" xml:space="preserve">
<style type="text/css">
	.st0{fill:url(#Path_81_00000062170486618764834360000001526188973469438857_);}
	.st1{fill:url(#Path_82_00000119112821767188252880000011539343012660994198_);}
	.st2{fill:url(#Path_83_00000150814766205485549360000011213120509909683903_);}
	.st3{fill:#9C9B9B;}
</style>
<g id="Group_191" transform="translate(-74.261 -48.898)">
	<g id="Group_187" transform="translate(74.261 48.898)">
		
			<radialGradient id="Path_81_00000103260387678549470470000003580415926628212400_" cx="-163.6094" cy="247.0914" r="1.887" gradientTransform="matrix(38.1214 0 0 -38.1507 6282.0483 9483.3506)" gradientUnits="userSpaceOnUse">
			<stop offset="0" style="stop-color:#0E9BD8"/>
			<stop offset="1" style="stop-color:#232856"/>
		</radialGradient>
		<path id="Path_81" style="fill:url(#Path_81_00000103260387678549470470000003580415926628212400_);" d="M36,39.4    C14.8,48.2-0.5,60,1.9,65.8s21.6,3.3,42.8-5.5s36.6-20.6,34.2-26.4C76.5,28.1,57.3,30.6,36,39.4z M25.6,59.3    c-4.1,1.8-8.4,1.1-9.6-1.5s1.2-6.3,5.3-8.1s8.4-1.1,9.6,1.5S29.7,57.5,25.6,59.3z"/>
		
			<radialGradient id="Path_82_00000068647358069039496050000011029182414028571802_" cx="-165.9681" cy="248.9726" r="1.269" gradientTransform="matrix(56.7299 0 0 -56.729 9464.4336 14180.8633)" gradientUnits="userSpaceOnUse">
			<stop offset="0" style="stop-color:#0E9BD8"/>
			<stop offset="1" style="stop-color:#232856"/>
		</radialGradient>
		<path id="Path_82" style="fill:url(#Path_82_00000068647358069039496050000011029182414028571802_);" d="M41,33.7    c22.1-9.2,42.7-13.8,54.7-13V0H0v56.7C9.4,49.1,23.9,40.8,41,33.7z"/>
		<g id="Group_186" transform="translate(0.002 41.608)">
			
				<radialGradient id="Path_83_00000146479826659069866610000001252385682848081044_" cx="-165.6974" cy="207.8422" r="1.305" gradientTransform="matrix(53.5707 0 0 -53.579 8925.4824 11149.8555)" gradientUnits="userSpaceOnUse">
				<stop offset="0" style="stop-color:#0E9BD8"/>
				<stop offset="1" style="stop-color:#232856"/>
			</radialGradient>
			<path id="Path_83" style="fill:url(#Path_83_00000146479826659069866610000001252385682848081044_);" d="M95.7,0v53.6H0V36.5     c10.3,0.6,26.6-2.7,44.7-9.3c0.6-0.2,1.2-0.4,1.8-0.7c2.5-0.9,5-1.9,7.6-3c2.9-1.2,5.7-2.4,8.4-3.7l1.2-0.5     c2.8-1.3,5.4-2.6,8-3.9c0.6-0.3,1.2-0.6,1.8-1C81.4,10.2,88.8,5.5,95.7,0z"/>
		</g>
	</g>
	<g id="Group_188" transform="translate(185.386 116.185)">
		<path id="Path_84" class="st3" d="M3.2,1.5v2.9c0,0.6,0,1.2-0.8,1.2C1.7,5.7,1.7,5,1.7,4.4V1.5H0v3.3C0,6.3,0.8,7,2.5,7    s2.5-0.7,2.5-2.2V1.5H3.2z"/>
		<path id="Path_85" class="st3" d="M10.3,1.5v2.9h0L8.7,1.5H7v5.4h1.6V3.9h0l1.6,2.9h1.6V1.5L10.3,1.5z"/>
		<path id="Path_86" class="st3" d="M14,1.5v5.4h1.7V1.5H14z"/>
		<path id="Path_87" class="st3" d="M20.6,1.5l-0.9,3.3h0l-0.9-3.3h-1.7l1.6,5.4h1.8l1.7-5.4H20.6z"/>
		<path id="Path_88" class="st3" d="M25.5,5.5V4.8H28V3.5h-2.6V2.9h2.8V1.5h-4.5v5.4h4.5V5.5L25.5,5.5z"/>
		<path id="Path_89" class="st3" d="M35.3,5.7c0-0.6-0.3-1.1-0.8-1.3C35,4.1,35.3,3.6,35.3,3c0-0.9-0.7-1.6-1.6-1.6    c-0.1,0-0.1,0-0.2,0h-3.2v5.4H32V5h0.9c0.7,0,0.7,0.5,0.7,1c0,0.3,0.1,0.6,0.1,0.8h1.6C35.3,6.5,35.3,6.1,35.3,5.7z M32.9,3.8H32    V2.8h0.8c0.6,0,0.8,0.2,0.8,0.5C33.6,3.8,33.2,3.8,32.9,3.8z"/>
		<path id="Path_90" class="st3" d="M40.2,3.6c-0.8-0.2-1.5-0.3-1.6-0.7c0-0.3,0.4-0.4,0.6-0.4c0.2,0,0.3,0,0.5,0.1    C39.9,2.8,40,3,39.9,3.1h1.6c0-1.3-1.1-1.8-2.3-1.8c-1.1,0-2.2,0.5-2.2,1.8c0,1.1,1,1.3,1.8,1.6C39.8,5,40.1,5,40.1,5.3    c0,0.4-0.4,0.5-0.7,0.5c-0.3,0-0.6-0.1-0.8-0.4c0-0.1-0.1-0.2-0.1-0.4h-1.7c0,1.7,1.8,1.9,2.4,1.9c1.2,0,2.5-0.4,2.5-1.8    C41.7,4.2,41,3.8,40.2,3.6z"/>
		<path id="Path_91" class="st3" d="M43.5,1.5v5.4h1.7V1.5H43.5z"/>
		<path id="Path_92" class="st3" d="M47,1.5v1.4h1.5v4h1.7v-4h1.5V1.5L47,1.5z"/>
		<path id="Path_93" class="st3" d="M55.7,0L55,1.1h1L57.3,0H55.7z M55.2,5.5V4.8h2.5V3.5h-2.5V2.9H58V1.5h-4.5v5.4h4.5V5.5    L55.2,5.5z"/>
		<path id="Path_94" class="st3" d="M68.2,1.5h-2.7v5.4h2.4c1.3,0.2,2.6-0.8,2.7-2.1c0-0.2,0-0.4,0-0.6C70.6,2.8,70,1.5,68.2,1.5z     M67.7,5.5h-0.6V2.9h0.5c0.7-0.1,1.2,0.4,1.3,1.1c0,0.1,0,0.1,0,0.2c0.1,0.6-0.3,1.2-1,1.3C67.9,5.5,67.8,5.5,67.7,5.5L67.7,5.5z"/>
		<path id="Path_95" class="st3" d="M74.2,5.5V4.8h2.5V3.5h-2.5V2.9H77V1.5h-4.4v5.4h4.5V5.5L74.2,5.5z"/>
		<path id="Path_96" class="st3" d="M84.2,1.5v1.4h1.5v4h1.7v-4h1.5V1.5L84.2,1.5z"/>
		<path id="Path_97" class="st3" d="M92.4,5.5V4.8H95V3.5h-2.5V2.9h2.8V1.5h-4.5v5.4h4.5V5.5L92.4,5.5z"/>
		<path id="Path_98" class="st3" d="M100.7,4.8c-0.1,0.5-0.3,0.9-0.9,0.9c-0.8,0-1-0.8-1-1.5s0.2-1.5,1-1.5c0.4,0,0.8,0.3,0.9,0.8    h1.6c0-1.2-1-2.2-2.3-2.1c-0.1,0-0.1,0-0.2,0c-1.6,0.1-2.8,1.4-2.7,2.9c0.1,1.5,1.2,2.7,2.7,2.7c1.3,0.1,2.4-0.9,2.5-2.2    c0,0,0,0,0-0.1L100.7,4.8z"/>
		<path id="Path_99" class="st3" d="M107.5,1.5v1.9h-1.6V1.5h-1.6v5.4h1.6V4.7h1.6v2.1h1.7V1.5H107.5z"/>
		<path id="Path_100" class="st3" d="M114.5,1.5v2.9h0l-1.6-2.9h-1.7v5.4h1.6V3.9h0l1.6,2.9h1.6V1.5L114.5,1.5z"/>
		<path id="Path_101" class="st3" d="M120.8,1.4c-1.6-0.1-2.9,1.2-2.9,2.7c-0.1,1.6,1.2,2.9,2.7,2.9s2.9-1.2,2.9-2.7    c0,0,0-0.1,0-0.1c0.1-1.5-1-2.7-2.5-2.8C120.9,1.4,120.8,1.4,120.8,1.4z M120.8,5.7c-0.4,0-1.1-0.3-1.1-1.5s0.6-1.5,1.1-1.5    s1.1,0.3,1.1,1.5S121.2,5.7,120.8,5.7z"/>
		<path id="Path_102" class="st3" d="M127.1,5.5v-4h-1.7v5.4h4V5.5L127.1,5.5z"/>
		<path id="Path_103" class="st3" d="M134,1.4c-1.6-0.1-2.9,1.2-2.9,2.7c-0.1,1.6,1.2,2.9,2.7,2.9s2.9-1.2,2.9-2.7c0,0,0-0.1,0-0.1    c0.1-1.5-1-2.7-2.5-2.8C134.2,1.4,134.1,1.4,134,1.4z M134,5.7c-0.4,0-1.1-0.3-1.1-1.5s0.6-1.5,1.1-1.5s1.1,0.3,1.1,1.5    S134.4,5.7,134,5.7z"/>
		<path id="Path_104" class="st3" d="M141.5,3.9v1.2h0.7c-0.1,0.4-0.5,0.6-0.8,0.6c-0.7,0-1.2-0.6-1.2-1.3c0,0,0-0.1,0-0.1    c0-0.4,0-1.6,1.1-1.6c0.4,0,0.7,0.3,0.8,0.7h1.6c-0.2-1.2-1.2-2.1-2.5-2c-1.5,0-2.7,1.2-2.7,2.6c0,0.1,0,0.2,0,0.3    c-0.1,1.4,0.9,2.7,2.4,2.8c0.1,0,0.1,0,0.2,0c0.6,0,1.2-0.2,1.5-0.7l0.1,0.5h1v-3L141.5,3.9z"/>
		<path id="Path_105" class="st3" d="M145.8,1.5v5.4h1.6V1.5H145.8z"/>
		<path id="Path_106" class="st3" d="M151.2,5.5V4.8h2.5V3.5h-2.5V2.9h2.8V1.5h-4.5v5.4h4.5V5.5L151.2,5.5z"/>
	</g>
	<g id="Group_189" transform="translate(185.519 56.511)">
		<path id="Path_107" class="st3" d="M27.3,11.9v20.8c0,8.1-3.6,15.9-11.9,15.9c-7.7,0-10.4-3.8-10.6-10.9V11.9H0v25.7    c0,9.2,3.9,15,13.9,15c5.8,0.2,11.1-3.1,13.7-8.3h0.2v7.1h4.4V11.9H27.3z"/>
		<path id="Path_108" class="st3" d="M60.8,15.9v-4.1h-8V0h-4.8v11.9H41v4.1h6.9V43c-0.1,6.7,2.1,8.9,8.6,8.9c1.5,0,2.8-0.2,4.3-0.2    v-4.1c-1.4,0.2-2.8,0.2-4.1,0.2c-3.5-0.2-3.9-2.1-3.9-5.2V16L60.8,15.9z"/>
		<path id="Path_109" class="st3" d="M87.4,15.9v-4.1h-8V0h-4.8v11.9h-6.9v4.1h6.9V43c-0.1,6.7,2.1,8.9,8.6,8.9    c1.5,0,2.8-0.2,4.3-0.2v-4.1c-1.4,0.2-2.7,0.2-4.1,0.2c-3.5-0.2-3.9-2.1-3.9-5.2V16L87.4,15.9z"/>
	</g>
	<g id="Group_190" transform="translate(185.493 131.222)">
		<path id="Path_110" class="st3" d="M0,0.3h10.3v1.9h-4V13H4V2.2H0V0.3z"/>
		<path id="Path_111" class="st3" d="M16.5,0.3h6.1c2.8,0,4.2,1.3,4.2,3.4c0.1,1.4-0.7,2.7-2.1,3.2v0c0.8,0.1,1.9,0.7,1.9,2.7    c-0.1,1.2,0.1,2.3,0.7,3.3h-2.4c-0.3-0.6-0.4-1.2-0.3-1.9c0-2.3-0.5-3.4-2.5-3.4h-3.3V13h-2.2L16.5,0.3z M18.7,6.1h3.7    c1.4,0,2.2-0.7,2.2-2c0-1.6-1-1.9-2.2-1.9h-3.6V6.1z"/>
		<path id="Path_112" class="st3" d="M43.7,6.7c0,3.6-2.3,6.7-6.1,6.7s-6.1-3-6.1-6.7S33.8,0,37.6,0S43.7,3,43.7,6.7z M33.7,6.7    c0,2.4,1.1,4.8,3.9,4.8s3.9-2.4,3.9-4.8s-1.1-4.8-3.9-4.8S33.7,4.2,33.7,6.7z"/>
		<path id="Path_113" class="st3" d="M52.1,8l-4.8-7.7h2.6L53.3,6l3.3-5.7h2.5L54.3,8v5h-2.2V8z"/>
		<path id="Path_114" class="st3" d="M63.5,0.3h9.2v1.9h-6.9v3.3h6.4v1.8h-6.4v3.7h7.1V13h-9.3L63.5,0.3z"/>
		<path id="Path_115" class="st3" d="M79.3,8.8c0,2,1.4,2.7,3.2,2.7c2,0,2.7-1,2.7-1.9c0.1-0.7-0.4-1.4-1.1-1.6    c-0.9-0.3-2-0.6-3.8-1c-2.2-0.6-2.8-1.9-2.8-3.2c0-2.5,2.3-3.7,4.6-3.7C84.8,0,87,1.4,87,4.1h-2.2c-0.1-1.6-1.2-2.2-2.7-2.2    c-1,0-2.3,0.4-2.3,1.7c0,0.9,0.6,1.4,1.5,1.6c0.2,0.1,3,0.8,3.7,1c1.5,0.4,2.5,1.7,2.5,3.2c0,2.8-2.5,4-5.1,4    c-2.9,0-5.3-1.4-5.3-4.5L79.3,8.8z"/>
	</g>
</g>
</svg>